<?xml version="1.0" encoding="UTF-8"?>
<svg id="Layer_1" data-name="Layer 1" xmlns="http://www.w3.org/2000/svg" viewBox="0 0 1500 1500">
  <g>
    <path d="M395.17,1328.78c-2.25-2.31-4.47-4.67-6.6-7.06,2.17,2.39,4.36,4.75,6.6,7.06Z"/>
    <path d="M724.79,1402.06c-54.47-10.63-105.81-35.41-153.79-74.19-18.94-15.27-35.1-32.47-48.75-51.22-21.46-29.42-36.65-62.74-46.43-98.93-.08-.23-.15-.5-.23-.73-1.74-6.57-3.32-13.3-4.76-20.06-1.16-5.57-2.2-11.1-3.09-16.62-.15-.85-.27-1.74-.43-2.59.04-.04.12-.04.15-.04s.04-.04.08-.04c1.08,6.69,2.28,13.42,3.67,20.1,1.78,8.47,3.83,16.78,6.15,24.97,0,.12.08.23.12.39,9.63,33.56,24.05,64.6,43.96,92.24,13.92,19.41,30.54,37.11,50.14,52.85,47.78,38.47,98.93,63.13,153.21,73.88Z"/>
    <path d="M1406.04,988.09c-27.22,64.77-68.39,119.5-128.84,157.65-36.47,23.03-75.46,35.97-116.3,40.45-.61.06-1.22.13-1.84.18-19.29,2.02-38.98,2.14-59,.52-11.38-.91-22.52-2.37-33.44-4.35-.46-.09-.93-.16-1.37-.25-77.13-14.22-142.81-53.81-202.53-105.68-49.86-43.32-92.41-93.22-131.4-146.33h0c5.05-8.1,10.56-17,16.41-26.62,76.49,82.33,170.79,127.14,289.74,136.95.27.03.52.06.79.07.1,0,.21.02.31.03,18.4,1.49,36.89.98,55.24-1.02,18.56-2.02,40.51-4.53,62.04-9.04,9.47-1.99,18.77-4.32,27.87-7.02.48-.13.96-.27,1.43-.42,55.46-16.59,103.86-46.5,141.19-92.92,73.73-91.65,96.86-195.81,67.98-310.03-34.02-134.55-163.15-211.02-297.07-178.57-.63.15-1.27.31-1.91.48,24.24-46.58,22.27-94.93,18.88-119.88.51.07,1.03.18,1.54.28,136.91,25.09,232.86,105.83,288.36,235.16,61,142.11,62.2,286.96,1.93,430.35Z"/>
    <path d="M616.33,735.55c-.07.16-.16.34-.24.51-.33-.18-.64-.34-.97-.52.42-.01.82-.01,1.21.01Z"/>
    <path d="M868.6,682.37c-.08,0-.15,0-.27-.08.04,0,.04-.04.08-.04.08.04.15.04.19.12Z"/>
    <path d="M867.05,681.52s0,.04-.04.08"/>
    <path d="M868.41,682.26s-.04.04-.08.04"/>
    <path d="M759.31,841.46c-1.55,2.82-3.09,5.57-4.68,8.35,2.74-5.06,4.45-8.31,4.52-8.43l.15.08Z"/>
    <path d="M747.73,903.67c-5.85,9.62-11.36,18.52-16.41,26.61-.33-.43-.64-.87-.96-1.3,5.03-8.05,10.5-16.9,16.31-26.45.34.39.7.76,1.06,1.13Z"/>
    <path d="M467.55,1137.63s-.04.04-.08.04-.12,0-.15.04c-.12-.5-.19-1.01-.27-1.51.12,0,.19,0,.27-.04v.04c.08.5.15.97.23,1.43Z"/>
  </g>
  <g>
    <path d="M937.35,233.92c10.99,31.97,17.08,63.93,18.77,95.89.34-.17.68-.17,1.01-.34-1.86-31.96-8.46-63.76-19.79-95.55ZM648.99,1446.56c15.05,2.37,30.1,4.06,45.16,4.91-15.05-1.02-30.1-2.54-45.16-4.91ZM495.08,1399.54c5.92,2.88,12.01,5.75,18.27,8.29,30.11,12.68,60.21,22.66,90.31,29.94-29.94-7.27-59.87-17.25-89.81-29.94-6.26-2.54-12.68-5.41-18.77-8.29Z"/>
    <path d="M475.59,1176.98c-4.83-16.35-6.92-28.84-7.85-36.69.89,5.53,1.93,11.06,3.09,16.62,1.43,6.77,3.02,13.49,4.76,20.06Z"/>
    <path d="M1182.92,1003.79c-.51.17-.85.34-1.35.51-49.22,19.79-112.81,22.49-145.45,22.49h-5.58c-.34-.51-.68-1.01-1.01-1.52-11.84-19.62-26.38-37.71-42.62-54.8h-.17c-.34-.51-.85-1.02-1.35-1.35-5.58-5.92-11.5-11.5-17.42-16.91-38.73-35.18-82.03-63.76-127.35-89.47l-224.6-126.68-.85-.51c-72.89-47.86-90.14-66.3-118.9-93.69-63.93-61.05-100.97-133.61-108.92-216.99-1.86-20.13-2.03-40.76-.68-61.9,5.41-75.6,37.55-140.38,88.96-195.51,63.93-68.5,144.1-105.03,236.27-116.19,70.36-8.46,139.53-2.87,206.17,21.99,62.92,23.68,115.01,61.9,149.68,120.59,6.6,10.99,12.18,22.15,16.74,33.32.17.34.34.68.51,1.01,12.35,30.11,18.1,60.89,17.76,92.18-.17,30.27-5.92,60.89-16.74,91.84-4.4,13.02-9.64,25.37-15.39,37.55-23.85,50.4-58.18,94.04-98.43,133.1-30.78,29.93-64.61,56.83-97.42,84.73l-30.95-20.64c42.79-55.3,75.09-116.19,95.22-183.67,13.36-44.65,19.45-89.13,17.08-133.44.34-.17.68-.17,1.01-.34-1.86-31.96-8.46-63.76-19.79-95.55-.17-.17-.17-.51-.34-.68-22.66-62.24-62.58-108.92-126.51-131.92-44.31-16.07-89.98-18.43-136.15-10.48-80.17,13.7-138.35,56.82-164.39,134.96-12.52,37.71-15.9,74.24-11.16,109.59.17.68.17,1.52.34,2.2,6.76,42.45,25.03,82.87,52.94,121.26,26.21,36.19,59.36,65.28,94.88,91.67,19.11,14.04,38.56,27.23,58.35,39.75,24.52,15.39,49.72,29.93,75.26,44.14l.17.17h.17c.17,0,.17.17.17.17l.34.17c.51.17,1.18.68,2.2,1.19.51.34,1.02.51,1.69.84,1.18.85,2.71,1.69,4.4,2.54.51.17.85.51,1.35.68,1.35.85,2.71,1.52,4.23,2.37.51.34,1.18.68,1.52.85,4.23,2.37,8.79,4.91,14.04,7.78,1.18.68,2.37,1.19,3.55,1.86,3.72,2.03,7.44,4.23,11.33,6.26,1.52.85,2.87,1.52,4.4,2.37,7.44,4.06,15.39,8.46,23.34,12.68l3.05,1.69c1.35.68,2.54,1.35,3.72,1.86.51.34,1.01.68,1.52.85,0,0,.17.17.51.34.17,0,.34.17.68.34.17,0,.34.17.51.34.34,0,.68.34,1.18.51.85.51,1.52.84,2.37,1.35.51.17.85.51,1.35.68q.17,0,.34.17c1.86.85,4.06,2.03,5.92,3.04,2.2,1.02,4.23,2.2,5.41,2.71.17.17.51.34.68.34.17.17.34.17.34.34l15.56,8.29c23.34,13.53,46.34,26.89,69.17,40.76,50.23,30.44,97.42,64.61,137.67,107.9,1.69,1.86,3.38,3.55,5.07,5.41.17.17.17.34.34.51,40.93,44.99,65.28,95.22,73.91,150.52,0,.51,0,1.02.17,1.52Z"/>
  </g>
  <path d="M726.73,896.82c6.1-9.56,20.48-33.68,26.01-43.54.23-.43.43-.85.66-1.24.43-.74.85-1.51,1.24-2.24,2.74-5.06,4.45-8.31,4.52-8.43l.15.08c.27-.46.54-.93.77-1.39.06-.11-2.96-2.13-8.16-5.5-30.2-19.55-139.9-79.41-139.9-79.41-1.37,2.21-2.75,4.96-3.99,7.66-4.21,9.11-8.73,18.08-13.82,26.74-14.18,24.15-22.91,37.09-43.21,64.67-20.64,28.11-43.07,54.55-69.2,77.36-.39.31-.77.66-1.16.97-6.73,5.84-13.69,11.4-20.95,16.7-38.47,28.07-79.02,46.51-121.55,53.12-.19.04-.43.08-.66.12-36.46,5.57-74.34,2.47-113.62-10.63-78.09-26.1-121.16-84.12-134.88-164.3-7.93-46.12-5.57-91.85,10.44-136.2,23.16-64.14,70.05-104.19,132.72-126.76,50.57-18.21,101.52-23.78,152.55-18.83.7.04,1.35.12,2.01.19l-.08-.19c10.44,1.82,15.08,4.06,15.54,4.25-42.1-68.08-37-148.26-37-148.26-1.62-.31-3.36-.58-5.06-.85-.43-.08-.85-.12-1.28-.19-1-.15-2.01-.31-3.02-.43-26.87-3.9-53.47-3.56-79.6,1.39-.12,0-.23.04-.31.04-.19.04-.27.04-.27.04-27.25,5.18-54.08,15.35-80.33,30.97-58.57,34.83-96.69,86.91-120.15,149.92-24.9,66.84-30.5,136.04-22,206.52,11.13,92.32,47.47,172.58,115.9,236.75,42.45,39.78,90.77,68.08,145.32,81.3.08.04.15.04.23.04,15.89,3.87,32.32,6.42,49.29,7.62,34.79,2.51,67.96.35,99.43-6.3.08,0,.19-.04.27-.08,67.46-14.27,127.11-49.17,178.49-103.37,18.36-19.37,39.33-44.19,56.23-65.19l66.46-98.01-24.54-14.84-13.51,69.75Z"/>
  <path d="M1157,1196.43c-.19.5-.39,1.01-.62,1.51-37.96,94.87-109.91,164.11-212.24,208.07-69.97,30.04-140.64,45.54-211.47,46.39-4.21.04-8.47.04-12.68,0-2.13-.04-4.29-.08-6.46-.12-2.13-.08-4.29-.15-6.46-.23-2.13-.08-4.29-.15-6.42-.27-2.16-.12-4.29-.23-6.46-.39-60.19-3.83-120.42-18.25-180.42-43.49-12.64-5.3-24.9-11.17-36.77-17.59-1.16-.62-2.36-1.28-3.52-1.93-1.2-.62-2.36-1.28-3.52-1.97-.04,0-.08-.04-.08-.04-2.09-1.2-4.18-2.44-6.26-3.63-.19-.12-.39-.27-.62-.39-2.28-1.39-4.56-2.78-6.8-4.21-3.67-2.28-7.23-4.6-10.71-7-1.16-.77-2.24-1.55-3.36-2.32-.43-.31-.85-.58-1.24-.89-.7-.5-1.39-.97-2.09-1.47-.62-.46-1.24-.93-1.86-1.35-.62-.43-1.24-.89-1.86-1.39-1.74-1.24-3.4-2.51-5.1-3.83-1.7-1.28-3.36-2.59-5.03-3.94-.97-.77-1.93-1.55-2.9-2.36-.12-.12-.23-.19-.35-.31-.23-.15-.43-.35-.62-.5-.04,0-.04-.04-.08-.04-.31-.27-.62-.5-.93-.77l-.7-.58c-.89-.77-1.78-1.51-2.67-2.28-.39-.31-.73-.62-1.08-.93-.77-.7-1.62-1.39-2.4-2.09-.27-.27-.54-.5-.81-.74-.54-.42-1.08-.93-1.59-1.39-.54-.5-1.04-.97-1.58-1.47-1.24-1.12-2.47-2.28-3.71-3.4-2.16-2.05-4.29-4.1-6.34-6.19-1.01-1.01-2.01-2.05-2.98-3.05-74.38-77.16-81.57-168.32-82.19-190.71-.08-3.33-.04-5.14-.04-5.14,0,0,65.95,17.01,153.01-3.4,0,0,0,1.89.27,5.57-.08.04-.15.04-.27.04.08.5.15,1.01.27,1.51.15.85.27,1.74.43,2.59.93,7.85,3.02,20.34,7.85,36.69.08.23.15.5.23.73,9.78,36.18,24.97,69.51,46.43,98.93,13.65,18.75,29.81,35.95,48.75,51.22,47.98,38.78,99.32,63.56,153.79,74.19,1.78.35,3.52.7,5.3,1.01,3.75.7,7.54,1.28,11.33,1.82.93.15,1.89.27,2.86.39,43.88,5.95,89.73,2.94,137.32-9.08,101.48-25.67,169.95-105.42,183.52-200.57.08-.46.15-.97.19-1.47,16.58,3.09,46.97,6.53,89.88,2.44.62-.04,1.2-.12,1.82-.15Z"/>
  <path d="M410.87,1343.95c-1.82-1.59-3.6-3.25-5.3-4.87,1.24,1.12,2.47,2.28,3.71,3.4.54.5,1.04.97,1.58,1.47Z"/>
  <path d="M421.74,1353.27c.12.12.23.19.35.31-.35-.27-.7-.54-1.04-.85.04,0,.04.04.08.04.19.15.39.35.62.5Z"/>
  <path d="M467.74,1140.29c-.15-.85-.27-1.74-.43-2.59-.12-.5-.19-1.01-.27-1.51.12,0,.19,0,.27-.04v.04c.04.46.12.97.15,1.47.08.81.15,1.7.27,2.63Z"/>
  <path d="M868.6,682.37c-.04-.08-.12-.08-.19-.12"/>
</svg>